# AST/ASF file generated using VICON BodyLanguage
# -----------------------------------------------
:version 1.10
:name VICON
:units
  mass 1.0
  length 0.45
  angle deg
:documentation
   .ast/.asf automatically generated from VICON data using
   VICON BodyBuilder and BodyLanguage model FoxedUp or BRILLIANT.MOD
:root
   order TX TY TZ RX RY RZ
   axis XYZ
   position 0 0 0  
   orientation 0 0 0 
:bonedata
  begin
     id 1 
     name lhipjoint
     direction 0.561145 -0.797705 0.220866 
     length 2.46425 
     axis 0 0 0  XYZ
  end
  begin
     id 2 
     name lfemur
     direction 0.34202 -0.939693 0  
     length 7.95556  
     axis 0 0 20  XYZ
    dof rx ry rz
    limits (-160.0 20.0)
           (-70.0 70.0)
           (-60.0 70.0)
  end
  begin
     id 3 
     name ltibia
     direction 0.34202 -0.939693 0   
     length 7.9832   
     axis 0 0 20   XYZ
    dof rx
    limits (-10.0 170.0)
  end
  begin
     id 4 
     name lfoot
     direction 0.0723927 -0.198897 0.977343   
     length 2.23085   
     axis -90 7.62852e-016 20   XYZ
    dof rx rz
    limits (-45.0 90.0)
           (-70.0 20.0)
  end
  begin
     id 5 
     name ltoes
     direction 1.53826e-011 -4.21988e-011 1   
     length 1.12127   
     axis -90 7.62852e-016 20   XYZ
    dof rx
    limits (-90.0 20.0)
  end
  begin
     id 6 
     name rhipjoint
     direction -0.610499 -0.763299 0.21134   
     length 2.57533  
     axis 0 0 0  XYZ 
  end
  begin
     id 7 
     name rfemur
     direction -0.34202 -0.939693 0   
     length 8.65257   
     axis 0 0 -20   XYZ
    dof rx ry rz
    limits (-160.0 20.0)
           (-70.0 70.0)
           (-70.0 60.0)
  end
  begin
     id 8 
     name rtibia
     direction -0.342021 -0.939692 0   
     length 7.37807   
     axis 0 0 -20   XYZ
    dof rx
    limits (-10.0 170.0)
 end
 begin
     id 9 
     name rfoot
     direction -0.0239304 -0.0543852 0.998233   
     length 1.87018  
     axis -90 -7.62852e-016 -20   XYZ
    dof rx rz
    limits (-45.0 90.0)
           (-20.0 70.0)
  end
  begin
     id 10 
     name rtoes
     direction -1.53584e-011 -4.2242e-011 1   
     length 0.951568   
     axis -90 -7.62852e-016 -20   XYZ
    dof rx
    limits (-90.0 20.0)
  end
  begin
     id 11 
     name lowerback
     direction 0.00322089 0.999033 0.0438587   
     length 2.07568   
     axis 0 0 0   XYZ
    dof rx ry rz
    limits (-20.0 45.0)
           (-30.0 30.0)
           (-30.0 30.0)
  end
  begin
     id 12 
     name upperback
     direction -0.00321932 0.999732 -0.0229403   
     length 2.06253   
     axis 0 0 0   XYZ
    dof rx ry rz
    limits (-20.0 45.0)
           (-30.0 30.0)
           (-30.0 30.0)
  end
  begin
     id 13 
     name thorax
     direction -0.00537537 0.998955 -0.0453918   
     length 2.06975   
     axis 0 0 0   XYZ
    dof rx ry rz
    limits (-20.0 45.0)
           (-30.0 30.0)
           (-30.0 30.0)
  end
  begin
     id 14 
     name lowerneck
     direction -0.00013604 0.994111 0.108363   
     length 1.50836   
     axis 0 0 0   XYZ
    dof rx ry rz
    limits (-20.0 45.0)
           (-30.0 30.0)
           (-30.0 30.0)
  end
  begin
     id 15 
     name upperneck
     direction 0.0397262 0.983859 -0.174482   
     length 1.53037   
     axis 0 0 0   XYZ
    dof rx ry rz
    limits (-20.0 45.0)
           (-30.0 30.0)
           (-30.0 30.0)
  end
  begin
     id 16
     name head
     direction 0.0109991 0.997082 -0.0755378  
     length 1.56928  
     axis 0 0 0   XYZ
    dof rx ry rz
    limits (-20.0 45.0)
           (-30.0 30.0)
           (-30.0 30.0)
  end
  begin
     id 17 
     name lclavicle
     direction 0.964749 0.254 -0.068874  
     length 3.26503  
     axis 0 0 0   XYZ
    dof ry rz
    limits (-20.0 10.0)
           (0.0 20.0)
  end
  begin
     id 18 
     name lhumerus
     direction 1 -4.48941e-011 -2.05079e-027   
     length 5.68236   
     axis 180 -30 -90   XYZ
    dof rx ry rz
    limits (-60.0 90.0)
           (-90.0 90.0)
           (-90.0 90.0)
  end
  begin
     id 19
     name lradius
     direction 1 -4.48956e-011 6.2882e-027   
     length 3.17112   
     axis 180 -30 -90   XYZ
    dof rx
    limits (-10.0 170.0)
  end
  begin
     id 20
     name lwrist
     direction 1 -4.49014e-011 1.73219e-026   
     length 1.58556   
     axis -1.04724e-014 90 90   XYZ
    dof ry
    limits (-180.0 0.0)
 end
  begin
     id 21 
     name lhand
     direction 1 -4.49312e-011 3.46438e-026   
     length 0.632691   
     axis -2.21057e-014 90 90   XYZ
    dof rx rz
    limits (-90.0 90.0)
           (-45.0 45.0)
  end
  begin
     id 22 
     name lfingers
     direction 1 -4.48894e-011 6.92876e-026   
     length 0.510091   
     axis -4.42114e-014 90 90   XYZ
    dof rx
    limits (0.0 90.0)
  end
  begin
     id 23
     name lthumb
     direction 0.707107 -6.34705e-011 0.707107   
     length 0.732392   
     axis -90 45 2.85299e-015   XYZ
    dof rx rz
    limits (-45.0 45.0)
           (-45.0 45.0)
  end
  begin
     id 24 
     name rclavicle
     direction -0.954374 0.280496 -0.102435   
     length 3.25419  
     axis 0 0 0   XYZ 
    dof ry rz
    limits (-10.0 20.0)
           (-20.0 0.0)
  end
  begin
     id 25 
     name rhumerus
     direction -1 -4.48994e-011 -1.07204e-017  
     length 5.8712   
     axis 180 30 90   XYZ
    dof rx ry rz
    limits (-90.0 60.0)
           (-90.0 90.0)
           (-90.0 90.0)
  end
  begin
     id 26 
     name rradius
     direction -1 -4.48972e-011 5.89292e-027   
     length 3.37589   
     axis 180 30 90   XYZ
    dof rx
    limits (-10.0 170.0)
  end
  begin
     id 27 
     name rwrist
     direction -1 -4.48942e-011 1.73219e-026   
     length 1.68794   
     axis -1.04724e-014 -90 -90   XYZ
    dof ry
    limits (-180.0 0.0)
  end
  begin
     id 28
     name rhand
     direction -1 -4.48514e-011 3.46438e-026   
     length 0.603257   
     axis -2.21057e-014 -90 -90   XYZ
    dof rx rz
    limits (-90.0 90.0)
           (-45.0 45.0)
  end
  begin
     id 29
     name rfingers
     direction -1 -4.50028e-011 6.92876e-026   
     length 0.486362   
     axis -4.42114e-014 -90 -90   XYZ
    dof rx
    limits (0.0 90.0)
  end
  begin
     id 30
     name rthumb
     direction -0.707107 -6.34926e-011 0.707107   
     length 0.698321   
     axis -90 -45 -2.85299e-015   XYZ
    dof rx rz
    limits (-45.0 45.0)
           (-45.0 45.0)
  end
:hierarchy
  begin
    root lhipjoint rhipjoint lowerback
    lhipjoint lfemur
    lfemur ltibia
    ltibia lfoot
    lfoot ltoes
    rhipjoint rfemur
    rfemur rtibia
    rtibia rfoot
    rfoot rtoes
    lowerback upperback
    upperback thorax
    thorax lowerneck lclavicle rclavicle
    lowerneck upperneck
    upperneck head
    lclavicle lhumerus
    lhumerus lradius
    lradius lwrist
    lwrist lhand lthumb
    lhand lfingers
    rclavicle rhumerus
    rhumerus rradius
    rradius rwrist
    rwrist rhand rthumb
    rhand rfingers
  end

#!OML:ASF I:\Segmentation\Patient Classification 1\Patient 1\Session 1\Patient1.ASF
:FULLY-SPECIFIED
:DEGREES
1145
root 29.2526 17.2062 -2.2245 -24.9605 87.4157 -414.916
lowerback 6.79895 1.63419 -1.52161
upperback 2.60131 2.13823 0.846508
thorax -1.21476 1.07925 1.55766
lowerneck -23.2157 0.187761 -3.86881
upperneck 4.41468 1.63351 -0.767191
head 4.94897 0.739995 0.543729
rclavicle -3.51849e-014 -1.43125e-014
rhumerus -37.6332 -17.5609 -68.632
rradius 26.2719
rwrist 19.2336
rhand -13.356 29.1269
rfingers 7.12502
rthumb 12.75 -0.463816
lclavicle -3.51849e-014 -1.43125e-014
lhumerus -33.3987 -14.7089 89.0083
lradius 28.6618
lwrist 15.1095
lhand -2.78127 37.7751
lfingers 7.12502
lthumb 22.9239 66.4323
rfemur -59.3733 5.22773 14.6412
rtibia 53.9678
rfoot -17.9528 -6.32794
rtoes -45.1717
lfemur -61.6239 -6.08955 -14.4876
ltibia 55.3685
lfoot -22.4777 5.47066
ltoes -16.0036
1146
root 29.3025 17.2409 -2.22802 -34.9838 87.8709 -424.345
lowerback 6.41332 1.67075 -1.56953
upperback 2.55495 2.18627 0.825879
thorax -1.05139 1.1011 1.57022
lowerneck -23.3089 0.395359 -3.89841
upperneck 5.03586 1.94122 -0.952134
head 5.15944 0.856603 0.524496
rclavicle -3.76697e-014 -3.00165e-014
rhumerus -38.7527 -18.5864 -67.6808
rradius 26.0492
rwrist 19.6841
rhand -13.1976 29.0787
rfingers 7.12502
rthumb 12.9027 -0.502465
lclavicle -3.76697e-014 -3.00165e-014
lhumerus -33.5877 -14.4213 88.9223
lradius 28.427
lwrist 14.8258
lhand -2.27538 37.9512
lfingers 7.12502
lthumb 23.4092 66.5474
rfemur -58.3381 5.1962 14.4953
rtibia 53.8319
rfoot -17.979 -6.69804
rtoes -45.6334
lfemur -60.5675 -6.61882 -14.5605
ltibia 54.7673
lfoot -22.2744 5.38563
ltoes -16.1044
1147
root 29.3514 17.2756 -2.23157 -50.8689 88.2491 -439.719
lowerback 5.92371 1.60061 -1.69685
upperback 2.45932 2.08843 0.783842
thorax -0.876885 1.04949 1.61813
lowerneck -23.1302 0.753978 -3.48938
upperneck 5.45217 2.32999 -1.33483
head 5.27155 1.01189 0.379958
rclavicle 1.23246e-014 4.37326e-015
rhumerus -39.7109 -19.2846 -66.9863
rradius 25.6349
rwrist 20.2153
rhand -12.6847 28.702
rfingers 7.12502
rthumb 13.3971 -0.847205
lclavicle 1.23246e-014 4.37326e-015
lhumerus -33.8192 -13.772 88.5624
lradius 28.2503
lwrist 14.3521
lhand -1.7011 37.9077
lfingers 7.12502
lthumb 23.9601 66.4326
rfemur -57.4674 5.21981 14.3097
rtibia 53.7788
rfoot -18.0971 -7.18783
rtoes -45.7498
lfemur -59.6257 -7.18918 -14.5983
ltibia 54.2191
lfoot -22.1848 5.19101
ltoes -15.77
1148
root 29.3947 17.329 -2.24099 -76.7867 88.4321 -465.157
lowerback 5.49393 1.4878 -1.7517
upperback 2.30591 1.93696 0.742764
thorax -0.789849 0.972294 1.62604
lowerneck -22.8226 1.18414 -3.08734
upperneck 5.87036 2.80106 -1.62806
head 5.36577 1.21442 0.273442
rclavicle -6.26172e-015 2.3059e-014
rhumerus -40.6483 -20.0899 -66.1391
rradius 25.0142
rwrist 21.0725
rhand -11.2528 28.9036
rfingers 7.12502
rthumb 14.777 -0.549628
lclavicle -6.26172e-015 2.3059e-014
lhumerus -34.1461 -13.3435 88.2792
lradius 28.2003
lwrist 14.2074
lhand -1.32956 37.8641
lfingers 7.12502
lthumb 24.3163 66.3417
rfemur -56.7878 5.14059 14.1506
rtibia 53.8869
rfoot -18.1559 -7.62502
rtoes -44.6502
lfemur -58.6887 -7.81416 -14.6449
ltibia 53.6361
lfoot -22.0958 4.86964
ltoes -15.298
1149
root 29.4394 17.3384 -2.25154 -105.241 88.217 -493.108
lowerback 5.08796 1.36359 -1.63212
upperback 2.16415 1.77836 0.639864
thorax -0.696369 0.892542 1.47128
lowerneck -22.4067 1.58298 -2.60057
upperneck 6.10436 3.21918 -2.02687
head 5.39105 1.3919 0.112184
rclavicle -1.45113e-014 4.8901e-014
rhumerus -41.6798 -21.3605 -65.1081
rradius 24.4269
rwrist 22.3781
rhand -9.89998 29.2903
rfingers 7.12502
rthumb 16.08 -0.0625129
lclavicle -1.45113e-014 4.8901e-014
lhumerus -34.3849 -13.3764 88.0442
lradius 28.1481
lwrist 14.5052
lhand -1.01101 38.0833
lfingers 7.12502
lthumb 24.6217 66.5196
rfemur -55.8763 4.86404 14.1185
rtibia 54.0624
rfoot -18.0054 -7.79075
rtoes -43.2237
lfemur -57.8715 -8.46874 -14.7155
ltibia 53.2305
lfoot -21.9349 4.51666
ltoes -14.9985
1150
root 29.4856 17.3646 -2.25621 -123.265 87.6879 -510.669
lowerback 4.53254 1.2699 -1.50342
upperback 2.14479 1.66439 0.512132
thorax -0.395338 0.833483 1.28748
lowerneck -22.2911 1.98642 -1.97808
upperneck 6.46271 3.6431 -2.55294
head 5.51029 1.56221 -0.107043
rclavicle 2.28602e-015 3.28989e-014
rhumerus -42.5013 -22.2148 -64.5269
rradius 24.2694
rwrist 22.6442
rhand -10.141 28.7974
rfingers 7.12502
rthumb 15.8478 -0.57401
lclavicle 2.28602e-015 3.28989e-014
lhumerus -34.168 -13.411 87.6492
lradius 27.9484
lwrist 14.6584
lhand -0.669207 38.2983
lfingers 7.12502
lthumb 24.9492 66.6896
rfemur -55.2133 4.83085 13.9477
rtibia 54.3951
rfoot -17.7925 -8.13995
rtoes -41.7474
lfemur -57.0297 -9.06796 -14.7367
ltibia 52.8056
lfoot -21.7981 4.11492
ltoes -14.3607
1151
root 29.5262 17.3844 -2.25109 -130.468 87.085 -517.515
lowerback 4.00424 1.31875 -1.51379
upperback 2.02198 1.73248 0.542257
thorax -0.230352 0.865057 1.33191
lowerneck -22.0285 2.26766 -1.78564
upperneck 6.86238 3.99549 -2.84699
head 5.61118 1.70436 -0.192922
rclavicle 1.78906e-015 -7.15625e-015
rhumerus -43.4528 -23.051 -63.6788
rradius 24.1656
rwrist 22.8275
rhand -10.7473 28.5945
rfingers 7.12502
rthumb 15.2639 -0.822289
lclavicle 1.78906e-015 -7.15625e-015
lhumerus -33.9548 -13.0809 87.3769
lradius 27.7195
lwrist 14.2574
lhand -0.392115 38.1095
lfingers 7.12502
lthumb 25.2147 66.4637
rfemur -54.8446 5.34399 13.6703
rtibia 54.8094
rfoot -17.7072 -8.77369
rtoes -41.0566
lfemur -56.3891 -9.50507 -14.5568
ltibia 52.465
lfoot -21.744 3.66502
ltoes -13.2801
1152
root 29.5648 17.3975 -2.24707 -134.418 86.513 -521.089
lowerback 3.62913 1.38241 -1.6462
upperback 1.87351 1.81494 0.643627
thorax -0.183366 0.904165 1.5137
lowerneck -21.8188 2.56238 -1.61737
upperneck 7.19959 4.38697 -3.20527
head 5.70332 1.86176 -0.290889
rclavicle 3.05134e-014 1.68967e-014
rhumerus -44.3256 -23.7769 -62.7628
rradius 24.0176
rwrist 23.2342
rhand -10.4023 28.0878
rfingers 7.12502
rthumb 15.5962 -1.30342
lclavicle 3.05134e-014 1.68967e-014
lhumerus -33.8204 -12.5373 87.1607
lradius 27.6151
lwrist 13.7322
lhand -0.326829 37.7641
lfingers 7.12502
lthumb 25.2773 66.1095
rfemur -54.4938 5.97855 13.3954
rtibia 55.3284
rfoot -17.5577 -9.24718
rtoes -41.8303
lfemur -55.7293 -9.85411 -14.4209
ltibia 52.0918
lfoot -21.6386 3.38853
ltoes -13.1002
1153
root 29.6088 17.4164 -2.25025 -139.221 85.8756 -525.498
lowerback 3.18963 1.41321 -1.75539
upperback 1.75457 1.85673 0.708674
thorax -0.0670026 0.922682 1.64956
lowerneck -21.7048 2.86051 -1.29941
upperneck 7.59607 4.77552 -3.74292
head 5.84032 2.00509 -0.468111
rclavicle 1.54058e-014 1.59028e-015
rhumerus -44.9929 -24.2852 -61.9999
rradius 23.7338
rwrist 23.4517
rhand -9.769 26.8649
rfingers 7.12502
rthumb 16.2061 -2.47767
lclavicle 1.54058e-014 1.59028e-015
lhumerus -33.6879 -12.1522 87.0141
lradius 27.632
lwrist 13.4421
lhand -0.574796 37.7206
lfingers 7.12502
lthumb 25.0397 66.0993
rfemur -54.0862 6.3686 13.0911
rtibia 55.8803
rfoot -17.2356 -9.32648
rtoes -41.8606
lfemur -55.0035 -10.2726 -14.4644
ltibia 51.7037
lfoot -21.455 3.20732
ltoes -13.7969
1154
root 29.6525 17.4369 -2.25459 -142.984 85.166 -528.897
lowerback 2.75943 1.43234 -1.76332
upperback 1.63323 1.8858 0.708473
thorax 0.0474941 0.935758 1.66239
lowerneck -21.5871 3.16551 -0.923144
upperneck 7.91941 5.14766 -4.19906
head 5.95516 2.15099 -0.630476
rclavicle -7.95139e-016 -5.56597e-015
rhumerus -45.5904 -24.7868 -61.3792
rradius 23.3938
rwrist 23.5853
rhand -9.48378 26.4544
rfingers 7.12502
rthumb 16.4807 -2.86557
lclavicle -7.95139e-016 -5.56597e-015
lhumerus -33.4924 -12.0895 86.8761
lradius 27.6984
lwrist 13.5737
lhand -1.08348 37.8661
lfingers 7.12502
lthumb 24.5522 66.3118
rfemur -53.7632 6.71205 12.7993
rtibia 56.424
rfoot -16.6131 -9.20753
rtoes -39.9861
lfemur -54.3428 -10.7696 -14.4453
ltibia 51.3324
lfoot -21.2556 2.94924
ltoes -14.0389
